<?xml version="1.0" encoding="utf-8"?>
<!-- Generator: Adobe Illustrator 19.1.0, SVG Export Plug-In . SVG Version: 6.00 Build 0)  -->
<!DOCTYPE svg PUBLIC "-//W3C//DTD SVG 1.1//EN" "http://www.w3.org/Graphics/SVG/1.1/DTD/svg11.dtd">
<svg version="1.1" id="Layer_1" xmlns="http://www.w3.org/2000/svg" xmlns:xlink="http://www.w3.org/1999/xlink" x="0px" y="0px"
	 viewBox="0 0 595.3 72.3" style="enable-background:new 0 0 595.3 72.3;" xml:space="preserve">
<style type="text/css">
	.st0{fill:#A39161;}
	.st1{fill:#FFFFFF;}
</style>
<g>
	<path class="st0" d="M556.3,29.8c-6.5-1.7-13.1,2.1-14.9,8.6c-1.7,6.5,2.1,13.2,8.6,14.9c6.5,1.7,13.2-2.1,14.9-8.6
		C566.6,38.2,562.7,31.5,556.3,29.8"/>
	<path class="st0" d="M568.5,1.2c-19.3-5.2-39.1,6.3-44.3,25.6c-5.2,19.3,6.3,39.1,25.6,44.3c4.2,1.1,8.4,1.4,12.6,1.1
		c3.2-1.4,5.7-4.2,6.7-7.9c0.9-3.5,0.2-7.1-1.7-9.9c-4.7,5.2-12,7.6-19.2,5.7c-10.3-2.7-16.4-13.3-13.6-23.5c2-7.4,8-12.6,15.1-13.9
		l0,0c3.4-0.7,6.3-3,7.6-6.5l5.6,2.1c-0.7,2-1.9,3.7-3.2,5.2c9.3,3.4,14.7,13.3,12,23.1c-0.1,0.5-0.3,1-0.5,1.5
		c4.4,4.7,6.4,11.4,4.6,18.1c-0.2,0.9-0.5,1.7-0.9,2.5c9.1-4.5,16.3-12.6,19.1-23.1C599.2,26.2,587.8,6.4,568.5,1.2"/>
</g>
<g>
	<path class="st1" d="M0,70.1V2.4h14c10.1,0,17.5,0.8,22,2.4c6.6,2.3,11.7,6.3,15.4,12c3.7,5.7,5.5,12.4,5.5,20.3
		c0,6.8-1.5,12.7-4.4,17.9c-2.9,5.2-6.7,9-11.4,11.4c-4.7,2.5-11.2,3.7-19.7,3.7H0z M6.5,63.7h7.8c9.4,0,15.8-0.6,19.5-1.7
		c5.1-1.7,9.1-4.6,12-8.9c2.9-4.3,4.4-9.6,4.4-15.8c0-6.5-1.6-12.1-4.7-16.7c-3.2-4.6-7.6-7.8-13.2-9.5C28,9.7,21,9,11.3,9H6.5V63.7
		z"/>
	<path class="st1" d="M69.1,2.4h6.8v67.7h-6.8V2.4z"/>
	<path class="st1" d="M84.4,57.5l5.8-3.5c4,7.5,8.7,11.2,14,11.2c2.3,0,4.4-0.5,6.4-1.6c2-1.1,3.5-2.5,4.6-4.3
		c1-1.8,1.6-3.7,1.6-5.7c0-2.3-0.8-4.5-2.3-6.7c-2.1-3-6-6.6-11.6-10.9c-5.6-4.3-9.2-7.3-10.5-9.2c-2.4-3.2-3.6-6.6-3.6-10.4
		c0-2.9,0.7-5.6,2.1-8.1c1.4-2.4,3.4-4.3,6-5.7c2.6-1.4,5.3-2.1,8.3-2.1c3.2,0,6.2,0.8,8.9,2.4c2.8,1.6,5.7,4.5,8.8,8.7l-5.5,4.2
		c-2.5-3.4-4.7-5.6-6.5-6.7c-1.8-1.1-3.7-1.6-5.9-1.6c-2.7,0-5,0.8-6.7,2.5c-1.7,1.7-2.6,3.7-2.6,6.1c0,1.5,0.3,2.9,0.9,4.3
		c0.6,1.4,1.7,2.9,3.4,4.5c0.9,0.9,3.8,3.1,8.7,6.8c5.9,4.3,9.9,8.2,12.1,11.5c2.2,3.4,3.3,6.8,3.3,10.2c0,4.9-1.9,9.2-5.6,12.8
		c-3.7,3.6-8.3,5.4-13.6,5.4c-4.1,0-7.8-1.1-11.2-3.3C90.3,66.3,87.2,62.6,84.4,57.5z"/>
	<path class="st1" d="M201.3,14.9L196,19c-2.9-3.8-6.5-6.7-10.6-8.7c-4.1-2-8.7-3-13.6-3c-5.4,0-10.4,1.3-15,3.9
		c-4.6,2.6-8.2,6.1-10.7,10.4c-2.5,4.4-3.8,9.3-3.8,14.7c0,8.2,2.8,15.1,8.5,20.7c5.7,5.5,12.8,8.3,21.4,8.3
		c9.5,0,17.4-3.7,23.8-11.1l5.3,4c-3.4,4.3-7.6,7.6-12.6,10c-5,2.3-10.7,3.5-16.9,3.5c-11.8,0-21.2-3.9-28-11.8
		c-5.7-6.7-8.6-14.7-8.6-24.1c0-9.9,3.5-18.2,10.4-25c6.9-6.8,15.6-10.1,26.1-10.1c6.3,0,12,1.2,17.1,3.7
		C193.9,6.9,198.1,10.4,201.3,14.9z"/>
	<path class="st1" d="M247.1,0.7c10.2,0,18.8,3.4,25.7,10.3c6.9,6.8,10.4,15.3,10.4,25.3c0,9.9-3.4,18.3-10.3,25.2
		c-6.9,6.9-15.3,10.3-25.2,10.3c-10,0-18.5-3.4-25.4-10.3c-6.9-6.9-10.4-15.2-10.4-24.9c0-6.5,1.6-12.5,4.7-18.1
		c3.1-5.5,7.4-9.9,12.9-13C234.9,2.3,240.8,0.7,247.1,0.7z M247.4,7.3c-5,0-9.8,1.3-14.2,3.9c-4.5,2.6-8,6.1-10.5,10.5
		c-2.5,4.4-3.8,9.3-3.8,14.8c0,8,2.8,14.8,8.4,20.4c5.6,5.5,12.3,8.3,20.2,8.3c5.3,0,10.1-1.3,14.6-3.8c4.5-2.5,8-6,10.5-10.5
		c2.5-4.4,3.8-9.3,3.8-14.7c0-5.4-1.3-10.2-3.8-14.6c-2.5-4.3-6-7.8-10.6-10.4C257.4,8.6,252.5,7.3,247.4,7.3z"/>
	<path class="st1" d="M291.6,2.4h7.4l22.4,52.3l22.8-52.3h7.4l-29.4,67.7h-1.5L291.6,2.4z"/>
	<path class="st1" d="M363,2.4h38.8V9h-32v21.2h31.7v6.6h-31.7v26.6h31.7v6.6H363V2.4z"/>
	<path class="st1" d="M413.8,2.4h13.5c7.5,0,12.6,0.3,15.3,0.9c4,0.9,7.3,2.9,9.8,5.9c2.5,3,3.8,6.7,3.8,11.2c0,3.7-0.9,6.9-2.6,9.7
		c-1.7,2.8-4.2,4.9-7.4,6.3c-3.2,1.4-7.7,2.2-13.3,2.2l24.3,31.4h-8.4l-24.3-31.4h-3.8v31.4h-6.8V2.4z M420.6,9v23l11.7,0.1
		c4.5,0,7.9-0.4,10-1.3c2.2-0.9,3.9-2.2,5.1-4.1c1.2-1.9,1.8-4,1.8-6.3c0-2.3-0.6-4.3-1.8-6.2c-1.2-1.9-2.8-3.2-4.8-4
		c-2-0.8-5.3-1.2-10-1.2H420.6z"/>
	<path class="st1" d="M465.3,2.4h7.8l17.3,27.9l17-27.9h7.8l-21.4,35.3v32.3h-6.7V37.7L465.3,2.4z"/>
</g>
</svg>
