<?xml version="1.0" encoding="utf-8"?>
<!-- Generator: Adobe Illustrator 22.1.0, SVG Export Plug-In . SVG Version: 6.00 Build 0)  -->
<svg version="1.1" id="Layer_1" xmlns="http://www.w3.org/2000/svg" xmlns:xlink="http://www.w3.org/1999/xlink" x="0px" y="0px"
	 viewBox="-198.5 -321.5 595.3 841.9" style="enable-background:new -198.5 -321.5 595.3 841.9;" xml:space="preserve">
<style type="text/css">
	.st0{display:none;}
	.st1{display:inline;fill:#A9A9A9;}
	.st2{fill:#FFFFFF;stroke:#484848;stroke-miterlimit:10;}
</style>
<g id="Logo">
	<g id="_x32_px_Stroke" class="st0">
		<path class="st1" d="M198,2v196H2V2H198 M200,0H0v200h200V0L200,0z"/>
	</g>
	<g>
		<path class="st2" d="M156.6,104.6c0-3.5-0.9-7-2.1-10.2c-1-2.5-2.1-5-3.2-7.4c-8.9-19.4-18.2-38.6-28-57.5
			c-1.4-2.6-2.7-5.3-4.2-7.9c-1.4-2.5-3.1-5-5.2-7c-3.4-3.3-8-5.2-12.8-5.5h-2.2c-4.9,0.2-9.6,2.3-13.1,5.7c-2.1,2-3.7,4.4-5.1,6.8
			c-1.4,2.6-2.8,5.2-4.1,7.8C70.1,42,63.7,54.9,57.6,67.8c-3.7,7.7-7.3,15.5-10.8,23.3c-1.5,3.3-2.8,6.6-3.3,10.2
			c-0.9,6,0.4,12.3,3.6,17.4c2.8,4.5,6.9,8.1,11.7,10.2c3.8,1.6,7.9,2.4,12,2.1c5.5-0.3,10.8-2.3,15.4-5.1
			c5.2-3.2,9.6-7.4,13.7-11.8c3.8,4.1,7.9,8.1,12.7,11.2c4.6,3,9.8,5.2,15.3,5.7c6,0.6,12.1-0.9,17.1-4.2c4.4-2.9,7.9-7.2,9.8-12.1
			C156.1,111.4,156.7,108,156.6,104.6z M99.9,102.3c-1.5-1.8-2.8-3.7-4.1-5.6c-2.2-3.3-4.3-6.7-5.9-10.3c-1.3-3-2.4-6.1-2.8-9.4
			c-0.3-2.6-0.2-5.3,0.7-7.7c0.9-2.3,2.5-4.3,4.6-5.6c4.9-3.2,12-2.8,16.4,1c2.3,1.9,3.6,4.8,4,7.7c0.4,3.9-0.4,7.8-1.8,11.4
			C108.4,90.6,104.3,96.6,99.9,102.3z M148.3,110.5c-1.3,4.5-4.5,8.5-8.6,10.8c-3.7,2.1-8.1,2.8-12.2,2.1c-5.3-0.8-10-3.6-14.1-6.9
			c-3-2.4-5.7-5.2-8.3-8c4.1-5.2,8-10.6,10.9-16.6c2.6-5.2,4.5-10.8,4.7-16.7c0.1-3.7-0.6-7.5-2.3-10.8c-2.3-4.4-6.3-7.8-11-9.4
			c-4.4-1.6-9.2-1.7-13.6-0.4c-4.2,1.2-8,3.7-10.6,7.2c-2.3,3-3.6,6.8-3.9,10.6c-0.5,5.5,0.9,10.9,3,15.9c3.1,7.3,7.6,14,12.6,20.1
			c-2.2,2.6-4.7,5-7.3,7.3c-4.1,3.4-8.7,6.4-13.9,7.5c-4.2,1-8.8,0.5-12.7-1.5c-4.6-2.3-8.1-6.6-9.4-11.5c-1-3.6-0.8-7.5,0.4-11.1
			c1-2.9,2.4-5.7,3.6-8.5c8.8-19.2,18-38.2,27.7-56.9c1.4-2.8,2.9-5.6,4.4-8.3c1.2-2.2,2.7-4.4,4.7-5.9c2.2-1.7,5-2.6,7.7-2.6
			c2.9,0,5.7,1,7.9,2.9c2.2,1.8,3.6,4.3,5,6.7c3,5.6,5.8,11.3,8.7,16.9c8.2,16.2,16,32.5,23.6,49.1c1.1,2.6,2.4,5.1,3.1,7.8
			C149.3,103.6,149.3,107.2,148.3,110.5z"/>
	</g>
</g>
<g id="Guides">
</g>
</svg>
